<?xml version="1.0" encoding="UTF-8"?>
<svg id="Camada_2" data-name="Camada 2" xmlns="http://www.w3.org/2000/svg" viewBox="0 0 697.71 512">
  <defs>
    <style>
      .cls-1 {
        fill: #fff;
      }
    </style>
  </defs>
  <g id="Camada_1-2" data-name="Camada 1">
    <g>
      <path class="cls-1" d="M172.86,64C172.86,28.7,201.56,0,236.86,0h224c35.3,0,64,28.7,64,64v384c0,35.3-28.7,64-64,64h-224c-35.3,0-64-28.7-64-64V64ZM236.86,64v304h224V64h-224ZM348.86,472c17.7,0,32-14.3,32-32s-14.3-32-32-32-32,14.3-32,32,14.3,32,32,32Z"/>
      <path class="cls-1" d="M107.13,129.14v-4.41c0-7.42-5.97-13.39-13.39-13.39H13.4c-5.41,0-10.32,3.24-12.39,8.26-2.06,5.02-.89,10.77,2.9,14.62l28.9,28.85C12.34,187.78,0,219.59,0,254.18,0,326.16,53.23,385.69,122.48,395.57c9.76,1.39,18.8-5.36,20.2-15.12,1.39-9.76-5.41-18.8-15.12-20.2-51.95-7.42-91.84-52.11-91.84-106.07,0-24.77,8.37-47.54,22.49-65.67l26.06,26.06c3.85,3.85,9.6,4.97,14.62,2.9,5.02-2.06,8.26-6.97,8.26-12.39v-75.94Z"/>
      <path class="cls-1" d="M590.58,377.95v4.41c0,7.42,5.97,13.39,13.39,13.39h80.35c5.41,0,10.32-3.24,12.39-8.26,2.06-5.02.89-10.77-2.9-14.62l-28.9-28.85c20.48-24.72,32.81-56.52,32.81-91.11,0-71.98-53.23-131.51-122.47-141.39-9.76-1.39-18.8,5.36-20.2,15.12s5.41,18.8,15.12,20.2c51.95,7.42,91.84,52.11,91.84,106.07,0,24.77-8.37,47.54-22.49,65.67l-26.06-26.06c-3.85-3.85-9.6-4.97-14.62-2.9-5.02,2.06-8.26,6.97-8.26,12.39v75.94Z"/>
    </g>
  </g>
</svg>